 http://imageshack.us/scaled/medium/526/vlcsnap2013031216h40m42.png 
http://imageshack.us/scaled/medium/69/vlcsnap2013031216h39m41.png 
http://imageshack.us/scaled/medium/839/vlcsnap2013031216h39m36.png 
http://imageshack.us/scaled/medium/833/vlcsnap2013031216h39m16.png 
http://imageshack.us/scaled/medium/37/vlcsnap2013031216h38m54.png 
http://imageshack.us/scaled/medium/707/vlcsnap2013031216h38m38.png 
http://imageshack.us/scaled/medium/811/vlcsnap2013031216h38m07.png 
http://imageshack.us/scaled/medium/12/vlcsnap2013031216h39m57.png 
http://imageshack.us/scaled/medium/560/chhotibahu1971.jpg

If yu missed this face to face, one to one super Programme with one and only Dara Paajee ki Zabaani, then pls make sure yu see this.

He is at his best as always and we his fans will keep on remembering him. Always a low key person.

Yu check out yourself and as always apprec any valuable comments  and /or ek button hai jiska naam hai..................

and if any1 can share his
 The Killers 1969,
Choron Ka Chor (1970)
  AND King Of Carnival 1963, pls do that. Thx a lot :)

Specs-
Sitaron Ka Safar ( Dara Singh).avi
Format                                   : AVI
Format/Info                              : Audio Video Interleave
File size                                : 157 MiB
Duration                                 : 20mn 58s
Overall bit rate                         : 1 044 Kbps

Video

Format                                   : MPEG-4 Visual
Format profile                           : Simple@L3
Format settings, BVOP                    : No
Format settings, QPel                    : No
Format settings, GMC                     : No warppoints
Format settings, Matrix                  : Default (H.263)
Codec ID                                 : XVID

Duration                                 : 20mn 58s
Bit rate                                 : 900 Kbps
Width                                    : 450 pixels
Height                                   : 360 pixels
Display aspect ratio                     : 5:4
Frame rate                               : 25.000 fps
Color space                              : YUV
Chroma subsampling                       : 4:2:0
Bit depth                                : 8 bits
Scan type                                : Progressive
Compression mode                         : Lossy
Bits/(Pixel*Frame)                       : 0.222
Stream size                              : 135 MiB (86%)
Writing library                          : XviD 1.2.1 (UTC 2008-12-04)

Audio
ID                                       : 1
Format                                   : MPEG Audio
Format version                           : Version 1
Format profile                           : Layer 3
Mode                                     : Joint stereo
Mode extension                           : MS Stereo
Codec ID                                 : 55
Codec ID/Hint                            : MP3
Duration                                 : 20mn 58s
Bit rate mode                            : Constant
Bit rate                                 : 128 Kbps
Channel(s)                               : 2 channels
Sampling rate                            : 44.1 KHz
Compression mode                         : Lossy
Stream size                              : 19.2 MiB (12%)
Alignment                                : Aligned on interleaves
Interleave, duration                     : 26 ms (0.65 video frame)
Writing library                          : LAME3.98.2

Folks pls note seeding slow upto 2200 IST, a wee bit btr after that so pls bear and help to seed as much as yu can. Cheers
Enjoii :)